<svg enable-background="new 0 0 1024 1024" viewBox="0 0 1024 1024" xmlns="http://www.w3.org/2000/svg"><circle cx="512" cy="512" fill="#607d8b" r="512"/><path d="m704 288.5c-5-4.3-11.7-6.2-18.2-5.2l-296.4 45.6c-11.2 1.7-19.4 11.3-19.4 22.6v236c-10.7-5.2-22.3-7.9-34.2-8-44.1 0-79.8 35.7-79.8 79.8s35.7 79.8 79.8 79.8 79.8-35.7 79.8-79.8v-174.3l250.8-38.5v95.3c-10.7-5.2-22.3-7.9-34.2-8-44.1 0-79.8 35.7-79.8 79.8s35.7 79.8 79.8 79.8 79.8-35.7 79.8-79.8v-307.8c0-6.7-2.9-13-8-17.3zm-368.2 404.9c-18.9 0-34.2-15.3-34.2-34.2s15.3-34.2 34.2-34.2 34.2 15.3 34.2 34.2-15.3 34.2-34.2 34.2zm296.4-45.6c-18.9 0-34.2-15.3-34.2-34.2s15.3-34.2 34.2-34.2 34.2 15.3 34.2 34.2-15.3 34.2-34.2 34.2zm34.2-247.6-250.8 38.5v-68.4l250.8-37.8z" fill="#fff"/></svg>